<mxfile host="Electron" agent="Mozilla/5.0 (Windows NT 10.0; Win64; x64) AppleWebKit/537.36 (KHTML, like Gecko) draw.io/24.7.17 Chrome/128.0.6613.36 Electron/32.0.1 Safari/537.36" version="24.7.17">
  <diagram name="Page-1" id="2YBvvXClWsGukQMizWep">
    <mxGraphModel dx="780" dy="592" grid="1" gridSize="10" guides="1" tooltips="1" connect="1" arrows="1" fold="1" page="1" pageScale="1" pageWidth="1100" pageHeight="1200" math="0" shadow="0">
      <root>
        <mxCell id="0" />
        <mxCell id="1" parent="0" />
        <mxCell id="-tokIjTfclb8eiRB36Tb-1" value="" style="endArrow=none;dashed=1;html=1;rounded=0;" parent="1" edge="1">
          <mxGeometry width="50" height="50" relative="1" as="geometry">
            <mxPoint x="220" y="619" as="sourcePoint" />
            <mxPoint x="220" y="200" as="targetPoint" />
          </mxGeometry>
        </mxCell>
        <mxCell id="-tokIjTfclb8eiRB36Tb-8" value=":ListTagsCommand" style="shape=umlLifeline;perimeter=lifelinePerimeter;whiteSpace=wrap;html=1;container=1;dropTarget=0;collapsible=0;recursiveResize=0;outlineConnect=0;portConstraint=eastwest;newEdgeStyle={&quot;curved&quot;:0,&quot;rounded&quot;:0};rounded=1;" parent="1" vertex="1">
          <mxGeometry x="300" y="160" width="160" height="460" as="geometry" />
        </mxCell>
        <mxCell id="-tokIjTfclb8eiRB36Tb-9" value="" style="html=1;points=[[0,0,0,0,5],[0,1,0,0,-5],[1,0,0,0,5],[1,1,0,0,-5]];perimeter=orthogonalPerimeter;outlineConnect=0;targetShapes=umlLifeline;portConstraint=eastwest;newEdgeStyle={&quot;curved&quot;:0,&quot;rounded&quot;:0};" parent="-tokIjTfclb8eiRB36Tb-8" vertex="1">
          <mxGeometry x="75" y="60" width="10" height="330" as="geometry" />
        </mxCell>
        <mxCell id="-tokIjTfclb8eiRB36Tb-13" value="" style="html=1;verticalAlign=bottom;labelBackgroundColor=none;endArrow=block;endFill=1;rounded=0;" parent="1" target="-tokIjTfclb8eiRB36Tb-9" edge="1">
          <mxGeometry width="160" relative="1" as="geometry">
            <mxPoint x="220" y="220" as="sourcePoint" />
            <mxPoint x="360" y="220" as="targetPoint" />
          </mxGeometry>
        </mxCell>
        <mxCell id="-tokIjTfclb8eiRB36Tb-14" value="execute(...)" style="edgeLabel;html=1;align=center;verticalAlign=middle;resizable=0;points=[];" parent="-tokIjTfclb8eiRB36Tb-13" vertex="1" connectable="0">
          <mxGeometry x="-0.3821" relative="1" as="geometry">
            <mxPoint x="-8" y="-10" as="offset" />
          </mxGeometry>
        </mxCell>
        <mxCell id="-tokIjTfclb8eiRB36Tb-16" value="" style="html=1;points=[[0,0,0,0,5],[0,1,0,0,-5],[1,0,0,0,5],[1,1,0,0,-5]];perimeter=orthogonalPerimeter;outlineConnect=0;targetShapes=umlLifeline;portConstraint=eastwest;newEdgeStyle={&quot;curved&quot;:0,&quot;rounded&quot;:0};" parent="1" vertex="1">
          <mxGeometry x="380" y="282" width="10" height="228" as="geometry" />
        </mxCell>
        <mxCell id="-tokIjTfclb8eiRB36Tb-17" value="handleCommand(...)" style="html=1;align=left;spacingLeft=2;endArrow=block;rounded=0;edgeStyle=orthogonalEdgeStyle;curved=0;rounded=0;" parent="1" source="-tokIjTfclb8eiRB36Tb-9" edge="1">
          <mxGeometry x="0.129" relative="1" as="geometry">
            <mxPoint x="385" y="252" as="sourcePoint" />
            <Array as="points">
              <mxPoint x="410" y="260" />
              <mxPoint x="410" y="282" />
            </Array>
            <mxPoint x="390" y="282" as="targetPoint" />
            <mxPoint as="offset" />
          </mxGeometry>
        </mxCell>
        <mxCell id="-tokIjTfclb8eiRB36Tb-19" value="" style="html=1;align=left;spacingLeft=2;endArrow=block;rounded=0;edgeStyle=orthogonalEdgeStyle;curved=0;rounded=0;dashed=1;" parent="1" edge="1">
          <mxGeometry x="0.129" relative="1" as="geometry">
            <mxPoint x="390" y="510" as="sourcePoint" />
            <Array as="points">
              <mxPoint x="410" y="510" />
              <mxPoint x="410" y="528" />
            </Array>
            <mxPoint x="385" y="528" as="targetPoint" />
            <mxPoint as="offset" />
          </mxGeometry>
        </mxCell>
        <mxCell id="_VLLp_RYDMONeOvb9VeY-3" value="return" style="edgeLabel;html=1;align=center;verticalAlign=middle;resizable=0;points=[];fontSize=12;" parent="-tokIjTfclb8eiRB36Tb-19" vertex="1" connectable="0">
          <mxGeometry x="-0.0794" relative="1" as="geometry">
            <mxPoint x="20" as="offset" />
          </mxGeometry>
        </mxCell>
        <mxCell id="-tokIjTfclb8eiRB36Tb-20" value="&amp;lt;&amp;lt;class&amp;gt;&amp;gt;&lt;div&gt;:Ui&lt;/div&gt;" style="shape=umlLifeline;perimeter=lifelinePerimeter;whiteSpace=wrap;html=1;container=1;dropTarget=0;collapsible=0;recursiveResize=0;outlineConnect=0;portConstraint=eastwest;newEdgeStyle={&quot;curved&quot;:0,&quot;rounded&quot;:0};rounded=1;" parent="1" vertex="1">
          <mxGeometry x="617" y="160" width="100" height="460" as="geometry" />
        </mxCell>
        <mxCell id="-tokIjTfclb8eiRB36Tb-22" value="" style="html=1;points=[[0,0,0,0,5],[0,1,0,0,-5],[1,0,0,0,5],[1,1,0,0,-5]];perimeter=orthogonalPerimeter;outlineConnect=0;targetShapes=umlLifeline;portConstraint=eastwest;newEdgeStyle={&quot;curved&quot;:0,&quot;rounded&quot;:0};" parent="-tokIjTfclb8eiRB36Tb-20" vertex="1">
          <mxGeometry x="45" y="175" width="10" height="35" as="geometry" />
        </mxCell>
        <mxCell id="dKQU-OC4QD5xdhrdrmRR-12" value="" style="html=1;points=[[0,0,0,0,5],[0,1,0,0,-5],[1,0,0,0,5],[1,1,0,0,-5]];perimeter=orthogonalPerimeter;outlineConnect=0;targetShapes=umlLifeline;portConstraint=eastwest;newEdgeStyle={&quot;curved&quot;:0,&quot;rounded&quot;:0};" parent="-tokIjTfclb8eiRB36Tb-20" vertex="1">
          <mxGeometry x="45" y="259" width="10" height="51" as="geometry" />
        </mxCell>
        <mxCell id="-tokIjTfclb8eiRB36Tb-66" value="" style="html=1;verticalAlign=bottom;labelBackgroundColor=none;endArrow=block;endFill=1;dashed=1;rounded=0;" parent="1" source="-tokIjTfclb8eiRB36Tb-9" edge="1">
          <mxGeometry width="160" relative="1" as="geometry">
            <mxPoint x="360" y="1000" as="sourcePoint" />
            <mxPoint x="220" y="550" as="targetPoint" />
          </mxGeometry>
        </mxCell>
        <mxCell id="_VLLp_RYDMONeOvb9VeY-4" value="return" style="edgeLabel;html=1;align=center;verticalAlign=middle;resizable=0;points=[];fontSize=12;" parent="-tokIjTfclb8eiRB36Tb-66" vertex="1" connectable="0">
          <mxGeometry x="-0.4452" y="-4" relative="1" as="geometry">
            <mxPoint x="-82" y="-6" as="offset" />
          </mxGeometry>
        </mxCell>
        <mxCell id="-tokIjTfclb8eiRB36Tb-67" value="&lt;b&gt;sd&lt;/b&gt;&amp;nbsp;execute list command" style="shape=umlFrame;whiteSpace=wrap;html=1;pointerEvents=0;width=170;height=40;" parent="1" vertex="1">
          <mxGeometry x="120" y="110" width="660" height="510" as="geometry" />
        </mxCell>
        <mxCell id="dKQU-OC4QD5xdhrdrmRR-1" value="alt" style="shape=umlFrame;whiteSpace=wrap;html=1;pointerEvents=0;recursiveResize=0;container=1;collapsible=0;width=40;height=30;" parent="1" vertex="1">
          <mxGeometry x="320" y="300" width="380" height="190" as="geometry" />
        </mxCell>
        <mxCell id="dKQU-OC4QD5xdhrdrmRR-2" value="&lt;div&gt;&lt;span style=&quot;font-size: 11px;&quot;&gt;[User&#39;s command has less than 3 words]&lt;/span&gt;&lt;/div&gt;" style="text;html=1;align=center;verticalAlign=middle;resizable=0;points=[];autosize=1;strokeColor=none;fillColor=none;fontSize=16;" parent="dKQU-OC4QD5xdhrdrmRR-1" vertex="1">
          <mxGeometry x="64" y="-6" width="220" height="30" as="geometry" />
        </mxCell>
        <mxCell id="dKQU-OC4QD5xdhrdrmRR-5" value="" style="html=1;verticalAlign=bottom;endArrow=block;curved=0;rounded=0;fontSize=12;startSize=8;endSize=8;" parent="dKQU-OC4QD5xdhrdrmRR-1" edge="1">
          <mxGeometry x="-1" y="-50" width="80" relative="1" as="geometry">
            <mxPoint x="70" y="35" as="sourcePoint" />
            <mxPoint x="342" y="35" as="targetPoint" />
            <mxPoint x="-30" y="-10" as="offset" />
          </mxGeometry>
        </mxCell>
        <mxCell id="dKQU-OC4QD5xdhrdrmRR-7" value="&lt;font style=&quot;font-size: 11px;&quot;&gt;printAllTags(...)&lt;/font&gt;" style="edgeLabel;html=1;align=center;verticalAlign=middle;resizable=0;points=[];fontSize=12;" parent="dKQU-OC4QD5xdhrdrmRR-5" vertex="1" connectable="0">
          <mxGeometry x="-0.3711" relative="1" as="geometry">
            <mxPoint x="41" y="-9" as="offset" />
          </mxGeometry>
        </mxCell>
        <mxCell id="dKQU-OC4QD5xdhrdrmRR-10" value="" style="line;strokeWidth=1;fillColor=none;align=left;verticalAlign=middle;spacingTop=-1;spacingLeft=3;spacingRight=3;rotatable=0;labelPosition=right;points=[];portConstraint=eastwest;strokeColor=inherit;dashed=1;" parent="dKQU-OC4QD5xdhrdrmRR-1" vertex="1">
          <mxGeometry y="91" width="380" height="8" as="geometry" />
        </mxCell>
        <mxCell id="dKQU-OC4QD5xdhrdrmRR-11" value="&lt;div&gt;&lt;span style=&quot;font-size: 11px;&quot;&gt;[Else]&lt;/span&gt;&lt;/div&gt;" style="text;html=1;align=center;verticalAlign=middle;resizable=0;points=[];autosize=1;strokeColor=none;fillColor=none;fontSize=16;" parent="dKQU-OC4QD5xdhrdrmRR-1" vertex="1">
          <mxGeometry x="64" y="91" width="50" height="30" as="geometry" />
        </mxCell>
        <mxCell id="dKQU-OC4QD5xdhrdrmRR-13" value="" style="html=1;verticalAlign=bottom;labelBackgroundColor=none;endArrow=block;endFill=1;rounded=0;fontSize=12;startSize=8;endSize=8;curved=1;" parent="dKQU-OC4QD5xdhrdrmRR-1" edge="1">
          <mxGeometry width="160" relative="1" as="geometry">
            <mxPoint x="70" y="118.99999999999989" as="sourcePoint" />
            <mxPoint x="342" y="118.99999999999989" as="targetPoint" />
          </mxGeometry>
        </mxCell>
        <mxCell id="dKQU-OC4QD5xdhrdrmRR-15" value="&lt;font style=&quot;font-size: 11px;&quot;&gt;printSpecificTag(...)&lt;/font&gt;" style="edgeLabel;html=1;align=center;verticalAlign=middle;resizable=0;points=[];fontSize=12;" parent="dKQU-OC4QD5xdhrdrmRR-13" vertex="1" connectable="0">
          <mxGeometry x="0.3755" y="-2" relative="1" as="geometry">
            <mxPoint x="-55" y="-11" as="offset" />
          </mxGeometry>
        </mxCell>
        <mxCell id="dKQU-OC4QD5xdhrdrmRR-14" value="" style="html=1;verticalAlign=bottom;labelBackgroundColor=none;endArrow=block;endFill=1;dashed=1;rounded=0;fontSize=12;startSize=8;endSize=8;curved=1;" parent="dKQU-OC4QD5xdhrdrmRR-1" edge="1">
          <mxGeometry width="160" relative="1" as="geometry">
            <mxPoint x="342" y="170" as="sourcePoint" />
            <mxPoint x="70" y="170" as="targetPoint" />
          </mxGeometry>
        </mxCell>
        <mxCell id="_VLLp_RYDMONeOvb9VeY-2" value="return" style="edgeLabel;html=1;align=center;verticalAlign=middle;resizable=0;points=[];fontSize=12;" parent="dKQU-OC4QD5xdhrdrmRR-14" vertex="1" connectable="0">
          <mxGeometry x="0.2794" y="-1" relative="1" as="geometry">
            <mxPoint x="-68" y="-9" as="offset" />
          </mxGeometry>
        </mxCell>
        <mxCell id="dKQU-OC4QD5xdhrdrmRR-3" value="Implies command is &quot;list tags&quot;" style="shape=note2;boundedLbl=1;whiteSpace=wrap;html=1;size=16;verticalAlign=top;align=center;flipV=1;" parent="1" vertex="1">
          <mxGeometry x="490" y="170" width="120" height="70" as="geometry" />
        </mxCell>
        <mxCell id="dKQU-OC4QD5xdhrdrmRR-4" value="" style="endArrow=none;dashed=1;html=1;rounded=0;fontSize=12;startSize=8;endSize=8;curved=1;entryX=0.5;entryY=0;entryDx=0;entryDy=0;entryPerimeter=0;" parent="1" target="dKQU-OC4QD5xdhrdrmRR-3" edge="1">
          <mxGeometry width="50" height="50" relative="1" as="geometry">
            <mxPoint x="503" y="308" as="sourcePoint" />
            <mxPoint x="580" y="232" as="targetPoint" />
          </mxGeometry>
        </mxCell>
        <mxCell id="dKQU-OC4QD5xdhrdrmRR-9" value="" style="html=1;verticalAlign=bottom;labelBackgroundColor=none;endArrow=block;endFill=1;dashed=1;rounded=0;fontSize=12;startSize=8;endSize=8;curved=1;" parent="1" edge="1">
          <mxGeometry width="160" relative="1" as="geometry">
            <mxPoint x="662" y="369.4999999999999" as="sourcePoint" />
            <mxPoint x="390" y="369.4999999999999" as="targetPoint" />
          </mxGeometry>
        </mxCell>
        <mxCell id="_VLLp_RYDMONeOvb9VeY-1" value="return" style="edgeLabel;html=1;align=center;verticalAlign=middle;resizable=0;points=[];fontSize=12;" parent="dKQU-OC4QD5xdhrdrmRR-9" vertex="1" connectable="0">
          <mxGeometry x="0.2794" y="-2" relative="1" as="geometry">
            <mxPoint x="-68" y="-7" as="offset" />
          </mxGeometry>
        </mxCell>
      </root>
    </mxGraphModel>
  </diagram>
</mxfile>
